<svg width="16" height="16" viewBox="0 0 16 16" fill="none" xmlns="http://www.w3.org/2000/svg">
<path d="M12.605 9.94504C12.2869 10.6973 11.7893 11.3601 11.1559 11.8757C10.5224 12.3912 9.77234 12.7438 8.97118 12.9024C8.17001 13.0611 7.34217 13.0211 6.56003 12.7859C5.77789 12.5508 5.06527 12.1276 4.48447 11.5534C3.90366 10.9792 3.47236 10.2714 3.22827 9.49201C2.98419 8.71261 2.93474 7.88528 3.08426 7.08236C3.23377 6.27943 3.57771 5.52535 4.08598 4.88605C4.59426 4.24675 5.2514 3.7417 5.99996 3.41504" stroke="#25282B" stroke-linecap="round" stroke-linejoin="round"/>
<path d="M13 8C13 7.34339 12.8707 6.69321 12.6194 6.08658C12.3681 5.47995 11.9998 4.92876 11.5355 4.46447C11.0712 4.00017 10.52 3.63188 9.91342 3.3806C9.30679 3.12933 8.65661 3 8 3V8H13Z" stroke="#25282B" stroke-linecap="round" stroke-linejoin="round"/>
</svg>
