<svg width="16" height="16" viewBox="0 0 16 16" fill="none" xmlns="http://www.w3.org/2000/svg">
<path d="M10.4264 5.744C10.1711 5.744 9.94374 5.58242 9.85978 5.3413L8.56663 1.62737C8.37968 1.09043 7.62032 1.09043 7.43337 1.62737L6.14022 5.3413C6.05626 5.58242 5.82891 5.744 5.57358 5.744H1.73983C1.16949 5.744 0.92088 6.46488 1.36998 6.81645L4.55953 9.3133C4.75798 9.46865 4.8382 9.73146 4.76032 9.97115L3.53854 13.7318C3.35896 14.2846 3.99164 14.7443 4.46186 14.4026L7.64733 12.0882C7.85762 11.9354 8.14238 11.9354 8.35267 12.0882L11.5381 14.4026C12.0084 14.7443 12.641 14.2846 12.4615 13.7318L11.2397 9.97115C11.1618 9.73146 11.242 9.46865 11.4405 9.3133L14.63 6.81645C15.0791 6.46488 14.8305 5.744 14.2602 5.744H10.4264Z" stroke="black"/>
</svg>
