<svg width="16" height="16" viewBox="0 0 16 16" fill="none" xmlns="http://www.w3.org/2000/svg">
<path d="M12.605 9.94498C12.2869 10.6972 11.7894 11.3601 11.156 11.8756C10.5225 12.3912 9.7724 12.7437 8.97124 12.9024C8.17007 13.061 7.34223 13.021 6.56009 12.7859C5.77795 12.5507 5.06533 12.1275 4.48453 11.5533C3.90373 10.9791 3.47243 10.2714 3.22834 9.49195C2.98425 8.71255 2.9348 7.88522 3.08432 7.08229C3.23384 6.27937 3.57777 5.52529 4.08604 4.88599C4.59432 4.24669 5.25146 3.74164 6.00002 3.41498" stroke="#25282B" stroke-linecap="round" stroke-linejoin="round"/>
<path d="M13 8C13 7.34339 12.8707 6.69321 12.6194 6.08658C12.3681 5.47995 11.9998 4.92876 11.5355 4.46447C11.0712 4.00017 10.52 3.63188 9.91342 3.3806C9.30679 3.12933 8.65661 3 8 3V8H13Z" stroke="#25282B" stroke-linecap="round" stroke-linejoin="round"/>
</svg>
