<svg width="16" height="16" viewBox="0 0 16 16" fill="none" xmlns="http://www.w3.org/2000/svg">
<path fill-rule="evenodd" clip-rule="evenodd" d="M8 15C4.13401 15 1 11.866 1 8C1 4.13401 4.13401 1 8 1C11.866 1 15 4.13401 15 8C15 11.866 11.866 15 8 15ZM12.7088 11.2612C13.351 10.3357 13.7273 9.2118 13.7273 8.00004C13.7273 4.83695 11.1631 2.27277 8.00004 2.27277C4.83695 2.27277 2.27277 4.83695 2.27277 8.00004C2.27277 9.21179 2.64908 10.3356 3.29123 11.2611C4.00593 10.3171 5.68342 9.91073 7.98568 9.90905C6.56761 9.90234 5.45457 8.90099 5.45457 6.72726C5.45457 5.29911 6.45946 4.18181 8.00003 4.18181C9.53633 4.18181 10.5455 5.40463 10.5455 6.85454C10.5455 8.93444 9.41926 9.90247 8.01447 9.90905C10.3167 9.91074 11.9942 10.3171 12.7088 11.2612ZM11.7957 12.289C11.6096 11.6192 10.2715 11.1818 8.00002 11.1818C5.72853 11.1818 4.39049 11.6192 4.20429 12.2889C5.21483 13.184 6.54398 13.7273 8.00004 13.7273C9.45608 13.7273 10.7852 13.184 11.7957 12.289ZM6.72723 6.7273C6.72723 8.17137 7.24791 8.63639 7.99996 8.63639C8.74941 8.63639 9.27269 8.18991 9.27269 6.85457C9.27269 6.05939 8.77356 5.45457 7.99996 5.45457C7.19416 5.45457 6.72723 5.97374 6.72723 6.7273Z" fill="black"/>
</svg>
