<svg width="20" height="20" viewBox="0 0 20 20" fill="none" xmlns="http://www.w3.org/2000/svg">
<path d="M17.3333 4.66666V8.66666H13.3333" stroke="black" stroke-linecap="round" stroke-linejoin="round"/>
<path d="M2.66666 15.3333V11.3333H6.66666" stroke="black" stroke-linecap="round" stroke-linejoin="round"/>
<path d="M4.33999 8.00001C4.6781 7.04453 5.25275 6.19028 6.0103 5.51696C6.76786 4.84363 7.68363 4.37319 8.67218 4.14952C9.66073 3.92584 10.6898 3.95624 11.6634 4.23786C12.6371 4.51948 13.5235 5.04315 14.24 5.76001L17.3333 8.66668M2.66666 11.3333L5.75999 14.24C6.47649 14.9569 7.36291 15.4805 8.33653 15.7622C9.31015 16.0438 10.3393 16.0742 11.3278 15.8505C12.3163 15.6268 13.2321 15.1564 13.9897 14.4831C14.7472 13.8097 15.3219 12.9555 15.66 12" stroke="black" stroke-linecap="round" stroke-linejoin="round"/>
</svg>
