<svg width="16" height="16" viewBox="0 0 16 16" fill="none" xmlns="http://www.w3.org/2000/svg">
<path fill-rule="evenodd" clip-rule="evenodd" d="M8.63636 4.81818V2.30768C11.5 2.62424 13.7273 5.05201 13.7273 8C13.7273 11.1631 11.1631 13.7273 8 13.7273C4.83691 13.7273 2.27273 11.1631 2.27273 8C2.27273 6.45604 2.88565 5.01079 3.95782 3.94261L3.05954 3.04098C1.75004 4.34561 1 6.11418 1 8C1 11.866 4.13401 15 8 15C11.866 15 15 11.866 15 8C15 4.13401 11.866 1 8 1H7.36364V4.81818H8.63636ZM7.99984 6.72737C7.88583 6.72737 7.77532 6.74236 7.67017 6.77048L5.268 4.3683L4.36804 5.26826L6.77022 7.67043C6.7421 7.77558 6.72711 7.88609 6.72711 8.0001C6.72711 8.703 7.29693 9.27282 7.99984 9.27282C8.70274 9.27282 9.27256 8.703 9.27256 8.0001C9.27256 7.29719 8.70274 6.72737 7.99984 6.72737Z" fill="black"/>
</svg>
