<svg width="20" height="20" viewBox="0 0 20 20" fill="none" xmlns="http://www.w3.org/2000/svg">
<path d="M12.6667 16V14.6667C12.6667 13.9594 12.3857 13.2811 11.8856 12.781C11.3855 12.281 10.7072 12 10 12H5.33333C4.62609 12 3.94781 12.281 3.44771 12.781C2.94762 13.2811 2.66667 13.9594 2.66667 14.6667V16" stroke="black" stroke-linecap="round" stroke-linejoin="round"/>
<path d="M7.66667 9.33333C9.13943 9.33333 10.3333 8.13943 10.3333 6.66667C10.3333 5.19391 9.13943 4 7.66667 4C6.19391 4 5 5.19391 5 6.66667C5 8.13943 6.19391 9.33333 7.66667 9.33333Z" stroke="black" stroke-linecap="round" stroke-linejoin="round"/>
<path d="M13.3333 9.33333L14.6667 10.6667L17.3333 8" stroke="black" stroke-linecap="round" stroke-linejoin="round"/>
</svg>
