<svg width="20" height="20" viewBox="0 0 20 20" fill="none" xmlns="http://www.w3.org/2000/svg">
<path d="M17.3334 4.66663V8.66663H13.3334" stroke="black" stroke-linecap="round" stroke-linejoin="round"/>
<path d="M2.66663 15.3334V11.3334H6.66663" stroke="black" stroke-linecap="round" stroke-linejoin="round"/>
<path d="M4.33996 8.00001C4.67807 7.04453 5.25271 6.19028 6.01027 5.51696C6.76783 4.84363 7.6836 4.37319 8.67215 4.14952C9.6607 3.92584 10.6898 3.95624 11.6634 4.23786C12.637 4.51948 13.5235 5.04315 14.24 5.76001L17.3333 8.66668M2.66663 11.3333L5.75996 14.24C6.47646 14.9569 7.36287 15.4805 8.3365 15.7622C9.31012 16.0438 10.3392 16.0742 11.3278 15.8505C12.3163 15.6268 13.2321 15.1564 13.9896 14.4831C14.7472 13.8097 15.3218 12.9555 15.66 12" stroke="black" stroke-linecap="round" stroke-linejoin="round"/>
</svg>
