<svg width="14" height="14" viewBox="0 0 14 14" fill="none" xmlns="http://www.w3.org/2000/svg">
<path fill-rule="evenodd" clip-rule="evenodd" d="M7.63636 3.81818V1.30768C10.5 1.62424 12.7273 4.05201 12.7273 7C12.7273 10.1631 10.1631 12.7273 7 12.7273C3.83691 12.7273 1.27273 10.1631 1.27273 7C1.27273 5.45604 1.88565 4.01079 2.95782 2.94261L2.05954 2.04098C0.750044 3.34561 0 5.11418 0 7C0 10.866 3.13401 14 7 14C10.866 14 14 10.866 14 7C14 3.13401 10.866 0 7 0H6.36364V3.81818H7.63636ZM6.99993 5.72732C6.88592 5.72732 6.77541 5.74231 6.67027 5.77043L4.26809 3.36825L3.36814 4.26821L5.77031 6.67038C5.7422 6.77553 5.7272 6.88604 5.7272 7.00005C5.7272 7.70296 6.29702 8.27278 6.99993 8.27278C7.70284 8.27278 8.27266 7.70296 8.27266 7.00005C8.27266 6.29714 7.70284 5.72732 6.99993 5.72732Z" fill="#9F9F9F"/>
</svg>
