<svg width="16" height="16" viewBox="0 0 16 16" fill="none" xmlns="http://www.w3.org/2000/svg">
<path d="M10.1764 6.25C9.92109 6.25 9.69374 6.08842 9.60978 5.84729L8.56663 2.85137C8.37968 2.31444 7.62032 2.31443 7.43337 2.85137L6.39022 5.84729C6.30626 6.08842 6.07891 6.25 5.82358 6.25H2.73983C2.16949 6.25 1.92088 6.97088 2.36998 7.32245L4.94828 9.3408C5.14673 9.49615 5.22695 9.75896 5.14907 9.99865L4.16754 13.0198C3.98795 13.5726 4.62064 14.0323 5.09086 13.6906L7.64733 11.8332C7.85762 11.6804 8.14238 11.6804 8.35267 11.8332L10.9091 13.6906C11.3794 14.0323 12.012 13.5726 11.8325 13.0198L10.8509 9.99864C10.7731 9.75896 10.8533 9.49615 11.0517 9.3408L13.63 7.32245C14.0791 6.97088 13.8305 6.25 13.2602 6.25H10.1764Z" fill="#FFD54F"/>
</svg>
