<svg width="14" height="14" viewBox="0 0 14 14" fill="none" xmlns="http://www.w3.org/2000/svg">
<path fill-rule="evenodd" clip-rule="evenodd" d="M4.2 2.8H2.8V2.1H1.4V4.2H12.6V2.1H11.2V2.8H9.8V2.1H4.2V2.8ZM12.6 5.6H1.4V12.6H12.6V5.6ZM9.8 0.7H4.2V0H2.8V0.7H1.4C0.626801 0.7 0 1.3268 0 2.1V12.6C0 13.3732 0.626801 14 1.4 14H12.6C13.3732 14 14 13.3732 14 12.6V2.1C14 1.3268 13.3732 0.7 12.6 0.7H11.2V0H9.8V0.7ZM4.9 8.4H3.5V7H4.9V8.4ZM6.3 8.4H7.7V7H6.3V8.4ZM9.1 8.4V7H10.5V8.4H9.1ZM3.5 11.2H4.9V9.8H3.5V11.2ZM7.7 11.2H6.3V9.8H7.7V11.2Z" fill="#9F9F9F"/>
</svg>
