<svg width="15" height="15" viewBox="0 0 15 15" fill="none" xmlns="http://www.w3.org/2000/svg">
<path fill-rule="evenodd" clip-rule="evenodd" d="M7.5 15C3.35786 15 0 11.6421 0 7.5C0 3.35786 3.35786 0 7.5 0C11.6421 0 15 3.35786 15 7.5C15 11.6421 11.6421 15 7.5 15ZM12.5451 10.9941C13.2331 10.0025 13.6364 8.79834 13.6364 7.5C13.6364 4.11098 10.889 1.36364 7.5 1.36364C4.11098 1.36364 1.36364 4.11098 1.36364 7.5C1.36364 8.79833 1.76685 10.0025 2.45489 10.9941C3.22224 9.9805 5.02541 9.54545 7.5 9.54545C9.97459 9.54545 11.7778 9.9805 12.5451 10.9941ZM11.5668 12.0953C11.3673 11.3777 9.93367 10.9091 7.5 10.9091C5.06633 10.9091 3.63273 11.3777 3.43317 12.0953C4.51588 13.0542 5.93996 13.6364 7.5 13.6364C9.06004 13.6364 10.4841 13.0542 11.5668 12.0953ZM7.5 3.40909C5.84939 3.40909 4.77273 4.6062 4.77273 6.13636C4.77273 8.47321 5.97332 9.54545 7.5 9.54545C9.01233 9.54545 10.2273 8.50883 10.2273 6.27273C10.2273 4.71926 9.14604 3.40909 7.5 3.40909ZM6.13636 6.13636C6.13636 7.68359 6.69424 8.18182 7.5 8.18182C8.30298 8.18182 8.86364 7.70345 8.86364 6.27273C8.86364 5.42074 8.32886 4.77273 7.5 4.77273C6.63664 4.77273 6.13636 5.32897 6.13636 6.13636Z" fill="#9F9F9F"/>
</svg>
